<svg xmlns="http://www.w3.org/2000/svg" xmlns:xlink="http://www.w3.org/1999/xlink" width="1080" zoomAndPan="magnify" viewBox="0 0 810 809.999993" height="1080" preserveAspectRatio="xMidYMid meet" version="1.0"><defs><clipPath id="85c02deac0"><path d="M 405 0 C 181.324219 0 0 181.324219 0 405 C 0 628.675781 181.324219 810 405 810 C 628.675781 810 810 628.675781 810 405 C 810 181.324219 628.675781 0 405 0 Z M 405 0 " clip-rule="nonzero"/></clipPath><clipPath id="0662889064"><path d="M 144.851562 95.027344 L 727 95.027344 L 727 677.027344 L 144.851562 677.027344 Z M 144.851562 95.027344 " clip-rule="nonzero"/></clipPath></defs><rect x="-81" width="972" fill="#ffffff" y="-80.999999" height="971.999992" fill-opacity="1"/><rect x="-81" width="972" fill="#2b5423" y="-80.999999" height="971.999992" fill-opacity="1"/><g clip-path="url(#85c02deac0)"><rect x="-81" width="972" fill="#e9e5be" y="-80.999999" height="971.999992" fill-opacity="1"/></g><g clip-path="url(#0662889064)"><path fill="#000000" d="M 224.121094 320.617188 C 224.121094 315.59375 228.195312 311.523438 233.21875 311.523438 L 462.921875 311.523438 C 467.945312 311.523438 472.015625 315.59375 472.015625 320.617188 C 472.015625 325.636719 467.945312 329.710938 462.921875 329.710938 L 233.21875 329.710938 C 228.195312 329.710938 224.121094 325.636719 224.121094 320.617188 Z M 438.433594 582.273438 L 233.21875 582.273438 C 228.195312 582.273438 224.121094 586.34375 224.121094 591.367188 C 224.121094 596.386719 228.195312 600.460938 233.21875 600.460938 L 438.433594 600.460938 C 443.457031 600.460938 447.527344 596.386719 447.527344 591.367188 C 447.527344 586.34375 443.457031 582.273438 438.433594 582.273438 Z M 233.21875 262.019531 L 398.113281 262.019531 C 403.132812 262.019531 407.207031 257.949219 407.207031 252.925781 C 407.207031 247.90625 403.132812 243.832031 398.113281 243.832031 L 233.21875 243.832031 C 228.195312 243.832031 224.121094 247.90625 224.121094 252.925781 C 224.121094 257.949219 228.195312 262.019531 233.21875 262.019531 Z M 721.414062 647.050781 L 698.132812 671.039062 C 694.265625 675.027344 689.109375 677.03125 683.945312 677.03125 C 678.984375 677.03125 674.015625 675.179688 670.183594 671.460938 L 609.902344 612.972656 C 608.234375 614.933594 605.753906 616.183594 602.976562 616.183594 L 551.21875 616.183594 L 551.21875 667.933594 C 551.21875 672.953125 547.144531 677.027344 542.125 677.027344 L 154.019531 677.027344 C 148.996094 677.027344 144.921875 672.953125 144.921875 667.933594 L 144.921875 164.964844 C 144.921875 159.941406 148.996094 155.871094 154.019531 155.871094 L 205.773438 155.871094 L 205.773438 104.121094 C 205.773438 99.097656 209.847656 95.027344 214.871094 95.027344 L 540.09375 95.027344 C 542.503906 95.027344 544.816406 95.984375 546.523438 97.6875 L 609.40625 160.5625 C 611.109375 162.269531 612.066406 164.582031 612.066406 166.992188 L 612.066406 401.570312 C 621.757812 419.453125 627.261719 439.914062 627.261719 461.636719 C 627.261719 485.769531 620.464844 508.34375 608.6875 527.550781 L 634.429688 552.808594 C 636.914062 551.660156 639.628906 551.015625 642.453125 550.972656 C 647.761719 550.945312 652.734375 552.871094 656.515625 556.539062 L 720.992188 619.097656 C 728.8125 626.691406 729 639.230469 721.414062 647.050781 Z M 597.957031 542.503906 C 595.515625 545.433594 592.945312 548.253906 590.253906 550.953125 L 612.863281 573.136719 L 620.820312 564.9375 Z M 609.074219 461.636719 C 609.074219 401.914062 560.484375 353.328125 500.757812 353.328125 C 441.03125 353.328125 392.445312 401.914062 392.445312 461.636719 C 392.445312 521.355469 441.03125 569.9375 500.757812 569.9375 C 560.484375 569.9375 609.074219 521.355469 609.074219 461.636719 Z M 488.335938 218.746094 L 520.164062 218.746094 L 488.335938 186.917969 Z M 549.1875 157.898438 L 581.015625 157.898438 L 549.1875 126.074219 Z M 223.964844 155.871094 L 479.242188 155.871094 C 481.652344 155.871094 483.964844 156.828125 485.671875 158.535156 L 548.554688 221.410156 C 550.257812 223.113281 551.21875 225.425781 551.21875 227.839844 L 551.21875 345.652344 C 567.503906 352.761719 582.011719 363.203125 593.878906 376.109375 L 593.878906 176.085938 L 540.09375 176.085938 C 535.070312 176.085938 531 172.015625 531 166.992188 L 531 113.214844 L 223.964844 113.214844 Z M 533.027344 607.089844 L 533.027344 583.949219 C 522.722656 586.671875 511.90625 588.125 500.757812 588.125 C 457.363281 588.125 419.007812 566.164062 396.210938 532.773438 L 233.21875 532.773438 C 228.195312 532.773438 224.121094 528.703125 224.121094 523.679688 C 224.121094 518.65625 228.195312 514.585938 233.21875 514.585938 L 385.886719 514.585938 C 378.882812 499.453125 374.777344 482.714844 374.300781 465.085938 L 233.21875 465.085938 C 228.195312 465.085938 224.121094 461.011719 224.121094 455.992188 C 224.121094 450.96875 228.195312 446.898438 233.21875 446.898438 L 375.117188 446.898438 C 377.203125 428.996094 383.039062 412.230469 391.824219 397.398438 L 233.21875 397.398438 C 228.195312 397.398438 224.121094 393.324219 224.121094 388.304688 C 224.121094 383.28125 228.195312 379.210938 233.21875 379.210938 L 404.878906 379.210938 C 428.097656 352.246094 462.464844 335.140625 500.757812 335.140625 C 511.90625 335.140625 522.722656 336.597656 533.027344 339.316406 L 533.027344 236.933594 L 479.242188 236.933594 C 474.21875 236.933594 470.148438 232.859375 470.148438 227.839844 L 470.148438 174.058594 L 163.113281 174.058594 L 163.113281 658.839844 L 533.027344 658.839844 Z M 593.878906 597.996094 L 593.878906 579.992188 L 576.46875 562.910156 C 568.695312 568.738281 560.226562 573.683594 551.214844 577.617188 L 551.214844 597.996094 Z M 708.324219 632.152344 L 643.847656 569.589844 C 643.480469 569.234375 643.054688 569.160156 642.753906 569.160156 C 642.742188 569.160156 642.734375 569.160156 642.726562 569.160156 C 642.421875 569.164062 641.980469 569.246094 641.617188 569.625 L 618.335938 593.613281 C 617.75 594.214844 617.765625 595.257812 618.367188 595.847656 L 682.847656 658.40625 C 683.449219 658.992188 684.496094 658.976562 685.082031 658.371094 L 708.359375 634.382812 C 708.945312 633.78125 708.929688 632.738281 708.324219 632.152344 Z M 594.160156 461.636719 C 594.160156 513.132812 552.261719 555.027344 500.757812 555.027344 C 449.253906 555.027344 407.355469 513.132812 407.355469 461.636719 C 407.355469 410.136719 449.253906 368.242188 500.757812 368.242188 C 552.261719 368.242188 594.160156 410.136719 594.160156 461.636719 Z M 575.972656 461.636719 C 575.972656 420.167969 542.230469 386.429688 500.757812 386.429688 C 459.285156 386.429688 425.546875 420.167969 425.546875 461.636719 C 425.546875 503.101562 459.285156 536.839844 500.757812 536.839844 C 542.230469 536.839844 575.972656 503.101562 575.972656 461.636719 Z M 575.972656 461.636719 " fill-opacity="1" fill-rule="nonzero"/></g></svg>