<svg xmlns="http://www.w3.org/2000/svg" xmlns:xlink="http://www.w3.org/1999/xlink" width="1080" zoomAndPan="magnify" viewBox="0 0 810 809.999993" height="1080" preserveAspectRatio="xMidYMid meet" version="1.0"><defs><clipPath id="0c66377d83"><path d="M 405 0 C 181.324219 0 0 181.324219 0 405 C 0 628.675781 181.324219 810 405 810 C 628.675781 810 810 628.675781 810 405 C 810 181.324219 628.675781 0 405 0 Z M 405 0 " clip-rule="nonzero"/></clipPath><clipPath id="bcc54670a9"><path d="M 53.367188 288 L 756.867188 288 L 756.867188 685 L 53.367188 685 Z M 53.367188 288 " clip-rule="nonzero"/></clipPath></defs><rect x="-81" width="972" fill="#ffffff" y="-80.999999" height="971.999992" fill-opacity="1"/><rect x="-81" width="972" fill="#2b5423" y="-80.999999" height="971.999992" fill-opacity="1"/><g clip-path="url(#0c66377d83)"><rect x="-81" width="972" fill="#e9e5be" y="-80.999999" height="971.999992" fill-opacity="1"/></g><g clip-path="url(#bcc54670a9)"><path fill="#050505" d="M 52.992188 521.738281 C 52.992188 517.210938 52.992188 512.730469 52.992188 508.203125 C 55.265625 508.046875 55.644531 506.199219 56.214844 504.554688 C 69.078125 468.070312 81.949219 431.558594 94.8125 395.066406 C 100.765625 380.808594 106.464844 366.472656 110.066406 351.382812 C 116.511719 334.355469 122.890625 317.285156 129.476562 300.289062 C 134.136719 288.242188 144.710938 285.144531 156.035156 291.664062 C 174.960938 302.5625 195.117188 310.742188 215.398438 318.636719 C 230.875 333.300781 250.292969 332.574219 269.511719 332.453125 C 287.445312 335.570312 305.558594 336.378906 323.691406 337.109375 C 330.679688 337.820312 337.816406 340.671875 344.539062 336.199219 C 355.707031 328.789062 366.828125 321.335938 377.972656 313.886719 C 394.867188 305.019531 413.589844 304.550781 431.925781 302.328125 C 449.566406 302.933594 466.375 306.988281 482.515625 313.933594 C 500.671875 323.390625 516.757812 339.546875 540.230469 331.574219 C 560.40625 332.242188 579.496094 329.402344 594.6875 314.320312 C 608.6875 306.832031 621.980469 298.160156 634.796875 288.785156 C 638.429688 288.707031 642.066406 288.621094 645.691406 288.519531 C 646.484375 288.964844 647.269531 289.390625 648.066406 289.835938 C 657.316406 306.699219 666.59375 323.59375 675.839844 340.464844 C 682.8125 356.324219 690.152344 371.988281 699.558594 386.585938 C 700.765625 389.246094 701.996094 391.898438 703.207031 394.550781 C 721.039062 429.714844 738.867188 464.902344 756.695312 500.097656 C 756.695312 502.828125 756.695312 505.503906 756.695312 508.210938 C 729.917969 526.605469 698.921875 536.476562 670.136719 550.820312 C 665.316406 553.207031 659.480469 551.519531 656.976562 546.929688 C 651.292969 536.429688 645.480469 538.988281 638.53125 545.195312 C 633.917969 549.320312 628.8125 552.972656 623.925781 556.863281 C 618.914062 559.140625 613.816406 561.117188 616.664062 568.53125 C 622.421875 583.605469 617.988281 596.59375 607.785156 608.199219 C 603.285156 610.921875 598.789062 613.652344 594.320312 616.375 C 588.40625 619.003906 578.539062 611.941406 576.128906 622.175781 C 571.519531 641.683594 558.9375 651.832031 540.296875 656.042969 C 529.109375 655.230469 515.234375 645.410156 510.113281 665.015625 C 503.015625 671.121094 494.914062 675.4375 485.957031 678.152344 C 477.597656 677.5625 469.101562 677.105469 461.542969 673.003906 C 457.824219 670.984375 455.164062 671.910156 451.808594 673.765625 C 445.289062 677.335938 438.484375 680.410156 431.785156 683.652344 C 414.191406 685.933594 397.652344 681.894531 381.542969 675.300781 C 377.25 672.273438 373.722656 668.429688 367.367188 672.320312 C 351.925781 681.707031 337.296875 678.292969 323.621094 667.886719 C 322.75 666.960938 321.878906 666.019531 321.007812 665.09375 C 318.433594 660.917969 318.355469 654.320312 310.632812 655.308594 C 294.410156 657.378906 282.632812 649.28125 272.347656 638.035156 C 271.085938 631.390625 267.785156 629.042969 260.410156 629.042969 C 244.417969 629.027344 232.121094 621.390625 225.132812 606.683594 C 223.023438 602.265625 220.796875 600.257812 215.589844 599.433594 C 197.03125 596.53125 186.027344 585.425781 184.246094 566.515625 C 183.675781 560.394531 180.820312 557.78125 175.539062 556.550781 C 168.082031 552.84375 161.933594 541.796875 152.984375 547.179688 C 145.078125 551.933594 138.984375 551.214844 131.507812 548.953125 C 111.265625 542.753906 91.023438 536.601562 70.664062 530.832031 C 64.074219 528.894531 58.035156 526.421875 52.992188 521.738281 Z M 590.765625 535.699219 C 594.78125 543.003906 599.558594 543.3125 605.714844 537.933594 C 610.113281 534.089844 615.117188 530.96875 619.855469 527.523438 C 635.847656 515.964844 635.847656 515.964844 624.289062 499.679688 C 606.234375 465.757812 590.289062 430.890625 577.433594 394.644531 C 575.871094 389.050781 574.382812 383.421875 572.734375 377.851562 C 565.753906 354.425781 565.722656 354.425781 540.097656 357.894531 C 522.269531 360.078125 504.65625 361.050781 489.878906 347.929688 C 470.921875 335.214844 450.695312 324.84375 427.304688 329.949219 C 417.039062 332.195312 405.09375 327.808594 396.347656 336.714844 C 389.070312 337.445312 382.953125 340.617188 377.621094 345.480469 C 371.964844 348.925781 366.277344 352.300781 360.679688 355.808594 C 346.238281 364.863281 334.402344 375.699219 334.664062 394.605469 C 333.085938 405.019531 329.109375 414.089844 321.210938 421.527344 C 318.453125 424.109375 316.898438 428.316406 315.636719 432.074219 C 312.640625 441.03125 316.269531 445.894531 325.667969 446.414062 C 336.003906 447.023438 345.15625 444.089844 353.023438 437.238281 C 361.273438 430.082031 368.765625 421.875 372.757812 411.910156 C 378.515625 397.453125 389.753906 393.050781 403.359375 392.148438 C 411.355469 391.605469 419.433594 392.550781 427.511719 392.816406 C 430.78125 394.332031 434.066406 395.835938 437.320312 397.328125 C 453.472656 411.328125 469.589844 425.3125 485.730469 439.296875 C 488.773438 443.109375 491.972656 446.710938 496.539062 448.804688 C 510.222656 463.183594 524.984375 476.328125 540.296875 488.898438 C 545.652344 495.542969 551.847656 501.273438 558.890625 506.066406 C 568.679688 516.828125 579.410156 526.597656 590.765625 535.699219 Z M 307.375 394.582031 C 309.824219 386.035156 311.949219 377.371094 314.851562 368.96875 C 316.796875 363.300781 314.773438 362.125 309.582031 361.875 C 296.214844 361.292969 282.882812 360.296875 269.527344 359.441406 C 257.964844 358.289062 246.355469 357.441406 234.828125 355.863281 C 228.144531 354.953125 226.515625 357.933594 225.589844 363.78125 C 224.003906 373.949219 221.476562 383.949219 219.351562 394.015625 C 217.078125 402.289062 214.8125 410.582031 212.523438 418.859375 C 201.195312 447.023438 190.679688 475.519531 177.132812 502.757812 C 167.1875 522.703125 167.492188 522.625 187.40625 533.429688 C 192.433594 536.152344 195.917969 537.542969 199.445312 531.59375 C 203.210938 525.222656 209.652344 521.730469 215.910156 518.222656 C 231.375 514.15625 245.195312 516.898438 255.382812 529.765625 C 260.105469 535.722656 264.578125 532.652344 269.488281 531.664062 C 281.429688 531.710938 293.722656 533.289062 300.9375 543.296875 C 307.761719 552.75 314.773438 552.445312 323.667969 548.84375 C 332.90625 550.105469 341.660156 552.703125 349.800781 557.308594 C 354.4375 563.0625 360.742188 568.046875 362.105469 575.585938 C 363.707031 584.667969 369.054688 587.75 377.34375 587.84375 C 382.648438 591.871094 389.359375 600.34375 393.007812 599.191406 C 409.433594 593.964844 416.214844 606.890625 426.246094 613.820312 C 439.667969 624.914062 452.90625 636.199219 466.609375 646.957031 C 474.261719 652.953125 483.550781 655.855469 490.578125 647.050781 C 497.488281 638.339844 491.070312 630.621094 484.578125 624.976562 C 467.371094 609.917969 449.621094 595.519531 432.082031 580.859375 C 423.722656 571.984375 414.46875 564.144531 404.601562 557.003906 C 399.007812 551.839844 393.472656 546.613281 387.800781 541.554688 C 381.496094 535.886719 379.636719 529.203125 385.390625 522.625 C 391.226562 515.972656 398.160156 517.359375 404.554688 522.601562 C 412.175781 528.871094 419.769531 535.132812 427.386719 541.394531 C 432.679688 547.390625 438.578125 552.679688 445.363281 556.949219 C 456.324219 568.171875 468.238281 578.292969 480.992188 587.476562 C 490.445312 597.417969 500.9375 606.199219 512.183594 614.125 C 520.175781 621.824219 527.425781 630.957031 540.484375 629.199219 C 553.738281 619.476562 554.96875 611.03125 543.140625 600.800781 C 507.15625 569.703125 470.78125 539.066406 434.5625 508.265625 C 433.289062 506.335938 431.988281 504.394531 430.71875 502.480469 C 429.652344 498.140625 431.257812 494.15625 432.339844 490.082031 C 441.109375 483.035156 448.4375 485.742188 456.191406 492.484375 C 489.472656 521.425781 523.085938 549.988281 556.492188 578.757812 C 563.0625 584.4375 569.917969 589.375 578.523438 591.335938 C 583.683594 592.503906 588.382812 591.625 591.808594 587.144531 C 595.378906 582.445312 594.273438 577.601562 591.402344 573.320312 C 586.859375 566.578125 581.023438 561 574.136719 556.613281 C 563.605469 546.84375 553.101562 537.0625 542.578125 527.308594 C 505.519531 491.316406 467.226562 456.667969 428.027344 423.050781 C 414.65625 411.601562 401.660156 414.402344 392.324219 429.03125 C 387.988281 435.789062 383.0625 442.191406 378.421875 448.796875 C 377.566406 448.828125 377.210938 449.261719 377.265625 450.085938 C 362.429688 464.816406 344.523438 472.285156 323.691406 472.875 C 308.601562 469.867188 295.777344 463.761719 289.902344 448.15625 C 287.085938 433.777344 290.992188 421.097656 298.65625 408.917969 C 301.597656 404.15625 307.816406 401.339844 307.375 394.582031 Z M 331.988281 577.886719 C 329.738281 574.941406 326.796875 575.015625 323.636719 575.972656 C 317.007812 574.984375 313.949219 579.738281 310.953125 584.148438 C 305.910156 591.5625 301.511719 599.417969 296.222656 606.660156 C 290.789062 614.054688 290.460938 621.070312 297.613281 626.773438 C 305.21875 632.808594 312.976562 631.167969 318.765625 623.652344 C 325.070312 615.472656 331.023438 607.007812 336.515625 598.304688 C 341.511719 590.355469 341.007812 583.003906 331.988281 577.886719 Z M 673.148438 394.433594 C 666.984375 379.46875 659.855469 364.996094 651.164062 351.304688 C 650.25 347.253906 648.859375 343.449219 645.777344 340.472656 C 636.851562 317.96875 636.851562 317.953125 617.425781 330.59375 C 614.859375 332.273438 612.523438 334.28125 610.089844 336.136719 C 590.296875 346.808594 590.175781 346.847656 596.632812 368.160156 C 599.308594 377.050781 602.632812 385.753906 605.636719 394.550781 C 619.496094 438.085938 640.160156 478.296875 665.402344 516.246094 C 668.476562 520.890625 671 523.542969 677.214844 520.359375 C 691.230469 513.214844 705.589844 506.765625 719.949219 500.371094 C 724.773438 498.242188 725.855469 495.84375 723.300781 491.132812 C 715.582031 477 708.136719 462.71875 700.578125 448.484375 C 692.5 429.917969 683.480469 411.84375 673.148438 394.433594 Z M 191.210938 337.3125 C 179.636719 331.765625 167.972656 326.363281 156.488281 320.589844 C 151.925781 318.304688 149.375 318.480469 147.566406 323.894531 C 139.644531 347.503906 131.4375 371.039062 123.335938 394.589844 C 109.109375 430.097656 96.601562 466.234375 84.511719 502.519531 C 81.429688 506.160156 83.210938 508.015625 86.945312 509.160156 C 101.941406 513.71875 116.992188 518.105469 131.925781 522.890625 C 136.789062 524.414062 138.269531 521.582031 140.050781 518.300781 C 161.40625 478.851562 180.632812 438.535156 191.351562 394.707031 C 197.140625 381.179688 198.5625 366.558594 201.941406 352.441406 C 204.285156 342.734375 200.472656 338.324219 191.210938 337.3125 Z M 272.921875 557.074219 C 272.152344 557.300781 270.089844 557.359375 268.8125 558.394531 C 258.476562 566.734375 250.945312 577.3125 247.273438 589.964844 C 245.691406 595.433594 249.359375 600.582031 255.117188 602.605469 C 260.476562 604.457031 266.097656 604.363281 269.824219 599.246094 C 275.398438 591.632812 280.953125 583.945312 285.652344 575.789062 C 290.578125 567.238281 283.808594 556.949219 272.921875 557.074219 Z M 400.757812 625.355469 C 397.132812 632.164062 394.238281 638.136719 390.789062 643.796875 C 388.96875 646.824219 387.910156 648.613281 391.558594 651.382812 C 401.714844 659.003906 422.648438 660.453125 434.515625 653.390625 C 423.402344 644.148438 412.492188 635.09375 400.757812 625.355469 Z M 373.621094 622.441406 C 373.800781 618.070312 372.421875 614.980469 369.164062 612.84375 C 365.800781 610.65625 362.027344 610.421875 359.234375 613.144531 C 351.210938 620.9375 345.007812 630.234375 340.066406 640.1875 C 337.832031 644.636719 340.128906 649.195312 344.765625 651.28125 C 350.035156 653.675781 352.8125 651.492188 353.925781 645.734375 C 354.734375 641.628906 358.347656 639.535156 362.175781 637.667969 C 368.578125 634.550781 371.257812 628.257812 373.621094 622.441406 Z M 237.792969 550.726562 C 237.429688 545.53125 234.066406 542.355469 228.378906 541.976562 C 222.5 541.5625 209.511719 557.367188 209.675781 564.5 C 209.800781 570.5 213.179688 573.585938 218.992188 573.875 C 224.679688 574.113281 237.894531 558.222656 237.792969 550.726562 Z M 237.792969 550.726562 " fill-opacity="1" fill-rule="nonzero"/></g><path fill="#050505" d="M 356.136719 124.070312 C 368.035156 139.378906 365.273438 158.519531 369.328125 175.832031 C 373.699219 194.421875 376.4375 213.402344 379.878906 232.214844 C 379.359375 240.3125 383.605469 248.839844 377.714844 256.453125 C 363.472656 261.765625 358.394531 259.027344 355.503906 244.605469 C 354.632812 240.289062 353.660156 236.019531 352.75 231.726562 C 349.808594 213.726562 346.875 195.746094 343.933594 177.738281 C 342.339844 166.640625 341.441406 155.371094 338.90625 144.488281 C 336.921875 135.878906 339.109375 129.601562 345.289062 124.070312 C 348.929688 124.070312 352.53125 124.070312 356.136719 124.070312 Z M 356.136719 124.070312 " fill-opacity="1" fill-rule="nonzero"/><path fill="#050505" d="M 458.992188 124.070312 C 463.503906 124.070312 468.003906 124.070312 472.523438 124.070312 C 478.277344 130.574219 479.171875 138.023438 477.730469 146.386719 C 475.910156 156.917969 474.890625 167.613281 473.511719 178.222656 C 471.125 196.179688 468.71875 214.148438 466.320312 232.09375 C 465.339844 237.296875 464.546875 242.523438 463.386719 247.664062 C 461.589844 255.621094 456.9375 260.722656 448.292969 258.964844 C 440.671875 257.425781 437.441406 251.855469 438.261719 244.09375 C 438.671875 240.148438 439.0625 236.175781 439.433594 232.230469 C 441.972656 214.335938 444.46875 196.429688 447.015625 178.523438 C 452.097656 160.628906 448.859375 140.878906 458.992188 124.070312 Z M 458.992188 124.070312 " fill-opacity="1" fill-rule="nonzero"/><path fill="#050505" d="M 527.15625 235.894531 C 537.441406 220.386719 548.058594 205.054688 557.917969 189.257812 C 563.589844 180.179688 570.257812 176.929688 580.128906 182.023438 C 585.078125 188.667969 584.59375 195.070312 580.066406 201.875 C 574.375 210.445312 569.226562 219.375 563.832031 228.117188 C 554.695312 241.953125 545.574219 255.785156 536.429688 269.613281 C 530.042969 272.871094 523.644531 274.046875 518.367188 267.855469 C 512.609375 261.089844 515.707031 254.726562 519.808594 248.433594 C 522.460938 244.382812 524.734375 240.085938 527.15625 235.894531 Z M 527.15625 235.894531 " fill-opacity="1" fill-rule="nonzero"/><path fill="#050505" d="M 273.511719 264.167969 C 266.742188 253.007812 259.855469 241.953125 251.265625 232.09375 C 247.257812 225.753906 243.445312 219.273438 239.195312 213.097656 C 234.292969 205.933594 232.992188 198.660156 240.75 193.332031 C 248.246094 188.167969 255.015625 190.945312 259.933594 198.460938 C 261.613281 201.035156 263.683594 203.359375 265.589844 205.785156 C 271.652344 214.613281 277.730469 223.464844 283.785156 232.292969 C 287.148438 237.582031 290.308594 242.988281 293.894531 248.089844 C 298.960938 255.277344 302.4375 262.691406 294.050781 269.394531 C 285.488281 276.230469 279.171875 270.6875 273.511719 264.167969 Z M 273.511719 264.167969 " fill-opacity="1" fill-rule="nonzero"/></svg>