<svg xmlns="http://www.w3.org/2000/svg" xmlns:xlink="http://www.w3.org/1999/xlink" width="1080" zoomAndPan="magnify" viewBox="0 0 810 809.999993" height="1080" preserveAspectRatio="xMidYMid meet" version="1.0"><defs><clipPath id="2f8cee0ebb"><path d="M 405 0 C 181.324219 0 0 181.324219 0 405 C 0 628.675781 181.324219 810 405 810 C 628.675781 810 810 628.675781 810 405 C 810 181.324219 628.675781 0 405 0 Z M 405 0 " clip-rule="nonzero"/></clipPath><clipPath id="9c131fa050"><path d="M 142 65 L 773.710938 65 L 773.710938 711 L 142 711 Z M 142 65 " clip-rule="nonzero"/></clipPath></defs><rect x="-81" width="972" fill="#ffffff" y="-80.999999" height="971.999992" fill-opacity="1"/><rect x="-81" width="972" fill="#2b5423" y="-80.999999" height="971.999992" fill-opacity="1"/><g clip-path="url(#2f8cee0ebb)"><rect x="-81" width="972" fill="#e9e5be" y="-80.999999" height="971.999992" fill-opacity="1"/></g><g clip-path="url(#9c131fa050)"><path fill="#000000" d="M 734.773438 281.667969 L 726.457031 243.632812 L 722.09375 245.117188 C 719.761719 245.929688 717.480469 246.867188 715.25 247.929688 C 713.019531 248.996094 710.855469 250.179688 708.753906 251.480469 C 706.65625 252.785156 704.632812 254.199219 702.691406 255.726562 C 700.75 257.253906 698.894531 258.882812 697.132812 260.613281 C 695.367188 262.34375 693.707031 264.167969 692.144531 266.082031 C 690.582031 267.996094 689.128906 269.992188 687.789062 272.066406 C 686.449219 274.144531 685.222656 276.285156 684.121094 278.496094 C 683.015625 280.707031 682.035156 282.972656 681.179688 285.289062 C 679.410156 290.824219 678.441406 296.492188 678.273438 302.300781 C 678.105469 308.109375 678.746094 313.828125 680.191406 319.453125 L 675.417969 325.296875 C 665.0625 316.730469 653.925781 309.335938 642.007812 303.121094 C 630.089844 296.90625 617.65625 292.003906 604.699219 288.417969 L 604.699219 199.722656 C 604.699219 170.664062 590.707031 156.503906 561.808594 156.503906 L 490.765625 156.503906 C 484.589844 130.984375 473.148438 122.339844 446.390625 122.339844 L 443.675781 122.257812 C 441.449219 122.144531 439.226562 122.199219 437.007812 122.421875 C 435.953125 122.648438 434.941406 122.539062 433.960938 122.09375 C 433.632812 121.84375 433.136719 121.023438 432.890625 118.550781 C 432.703125 116.824219 432.441406 115.109375 432.105469 113.40625 C 431.769531 111.703125 431.363281 110.015625 430.878906 108.347656 C 430.394531 106.679688 429.839844 105.035156 429.214844 103.414062 C 428.589844 101.792969 427.894531 100.203125 427.128906 98.644531 C 426.367188 97.085938 425.535156 95.5625 424.636719 94.074219 C 423.742188 92.585938 422.78125 91.140625 421.757812 89.738281 C 420.734375 88.332031 419.652344 86.976562 418.511719 85.667969 C 417.371094 84.359375 416.175781 83.101562 414.921875 81.894531 C 413.671875 80.691406 412.371094 79.542969 411.019531 78.449219 C 409.671875 77.355469 408.273438 76.324219 406.835938 75.355469 C 405.394531 74.386719 403.914062 73.480469 402.394531 72.636719 C 400.875 71.796875 399.320312 71.023438 397.734375 70.316406 C 396.148438 69.609375 394.535156 68.972656 392.890625 68.40625 C 391.25 67.839844 389.585938 67.347656 387.902344 66.925781 C 386.214844 66.507812 384.515625 66.160156 382.800781 65.886719 C 381.085938 65.613281 379.359375 65.417969 377.628906 65.292969 C 375.894531 65.171875 374.160156 65.125 372.421875 65.152344 C 370.6875 65.179688 368.953125 65.285156 367.226562 65.464844 C 365.5 65.644531 363.78125 65.898438 362.078125 66.226562 C 360.371094 66.554688 358.683594 66.957031 357.011719 67.433594 C 355.34375 67.910156 353.695312 68.457031 352.074219 69.074219 C 350.449219 69.695312 348.859375 70.382812 347.292969 71.140625 C 345.730469 71.898438 344.203125 72.722656 342.714844 73.613281 C 341.222656 74.503906 339.773438 75.460938 338.363281 76.476562 C 336.957031 77.492188 335.597656 78.570312 334.28125 79.707031 C 332.96875 80.839844 331.707031 82.03125 330.496094 83.277344 C 329.285156 84.523438 328.128906 85.820312 327.03125 87.164062 C 325.933594 88.511719 324.898438 89.902344 323.921875 91.339844 C 322.945312 92.777344 322.03125 94.25 321.183594 95.765625 C 320.335938 97.285156 319.554688 98.832031 318.84375 100.417969 C 318.128906 102 317.488281 103.613281 316.914062 105.253906 C 316.34375 106.890625 315.84375 108.554688 315.414062 110.238281 C 315.019531 111.867188 314.714844 113.511719 314.507812 115.175781 C 314.097656 117.8125 313.601562 121.351562 312.53125 122.09375 C 309.835938 123.027344 307.089844 123.195312 304.300781 122.585938 C 302.695312 122.261719 301.074219 122.175781 299.441406 122.339844 C 273.921875 122.339844 261.65625 131.972656 256.386719 156.503906 L 184.105469 156.503906 C 156.773438 156.535156 142.285156 171.074219 142.285156 198.652344 L 142.285156 669.410156 C 142.160156 670.777344 142.109375 672.148438 142.136719 673.519531 C 142.160156 674.894531 142.261719 676.261719 142.4375 677.625 C 142.613281 678.984375 142.859375 680.335938 143.183594 681.667969 C 143.507812 683.003906 143.902344 684.316406 144.371094 685.609375 C 144.835938 686.902344 145.371094 688.164062 145.980469 689.394531 C 146.585938 690.628906 147.253906 691.824219 147.992188 692.984375 C 148.730469 694.144531 149.527344 695.257812 150.386719 696.332031 C 151.246094 697.402344 152.160156 698.421875 153.132812 699.394531 C 154.101562 700.367188 155.125 701.28125 156.195312 702.140625 C 157.269531 703 158.382812 703.796875 159.542969 704.535156 C 160.703125 705.273438 161.898438 705.941406 163.128906 706.546875 C 164.363281 707.152344 165.625 707.691406 166.917969 708.15625 C 168.210938 708.625 169.523438 709.019531 170.859375 709.34375 C 172.191406 709.667969 173.542969 709.914062 174.902344 710.089844 C 176.265625 710.265625 177.632812 710.367188 179.007812 710.390625 C 180.378906 710.417969 181.75 710.367188 183.117188 710.242188 L 562.714844 710.242188 C 590.210938 710.242188 604.785156 695.753906 604.785156 668.339844 L 604.785156 632.445312 C 609.144531 631.253906 613.453125 629.894531 617.707031 628.375 C 621.964844 626.851562 626.15625 625.171875 630.285156 623.332031 C 634.414062 621.492188 638.46875 619.496094 642.445312 617.347656 C 646.421875 615.199219 650.308594 612.902344 654.109375 610.457031 C 657.914062 608.011719 661.617188 605.421875 665.21875 602.695312 C 668.824219 599.96875 672.320312 597.109375 675.707031 594.113281 C 679.09375 591.121094 682.363281 588.003906 685.511719 584.761719 C 688.660156 581.519531 691.683594 578.160156 694.574219 574.6875 C 697.46875 571.214844 700.226562 567.636719 702.847656 563.957031 C 705.46875 560.273438 707.945312 556.496094 710.28125 552.625 C 712.613281 548.753906 714.796875 544.796875 716.828125 540.761719 C 718.859375 536.722656 720.738281 532.613281 722.457031 528.433594 C 724.175781 524.253906 725.734375 520.015625 727.128906 515.714844 C 728.527344 511.414062 729.757812 507.070312 730.820312 502.675781 C 731.886719 498.285156 732.785156 493.859375 733.511719 489.394531 C 734.242188 484.933594 734.796875 480.453125 735.183594 475.949219 C 735.695312 470.039062 735.921875 464.117188 735.855469 458.183594 C 735.789062 452.253906 735.4375 446.335938 734.792969 440.441406 C 734.152344 434.542969 733.226562 428.6875 732.015625 422.882812 C 730.800781 417.074219 729.308594 411.339844 727.539062 405.675781 C 725.765625 400.015625 723.726562 394.453125 721.410156 388.988281 C 719.097656 383.527344 716.523438 378.1875 713.691406 372.976562 C 710.859375 367.765625 707.777344 362.703125 704.449219 357.789062 C 701.121094 352.878906 697.566406 348.140625 693.777344 343.574219 L 698.714844 339.457031 C 702.082031 340.109375 705.480469 340.484375 708.90625 340.585938 C 712.335938 340.691406 715.75 340.515625 719.148438 340.070312 C 722.546875 339.621094 725.890625 338.90625 729.171875 337.917969 C 732.457031 336.933594 735.640625 335.6875 738.726562 334.1875 C 740.757812 333.132812 742.726562 331.96875 744.636719 330.707031 C 746.550781 329.445312 748.390625 328.085938 750.160156 326.632812 C 751.929688 325.175781 753.617188 323.632812 755.226562 322.003906 C 756.835938 320.375 758.355469 318.664062 759.789062 316.878906 C 761.21875 315.089844 762.554688 313.230469 763.792969 311.304688 C 765.03125 309.375 766.164062 307.390625 767.195312 305.34375 C 768.226562 303.300781 769.152344 301.207031 769.964844 299.066406 C 770.777344 296.925781 771.480469 294.746094 772.066406 292.535156 L 773.136719 288.171875 Z M 285.199219 186.058594 C 285.117188 177.90625 285.117188 169.675781 285.199219 161.523438 C 285.285156 153.867188 288.082031 151.152344 295.65625 150.988281 C 301.089844 150.824219 306.605469 150.90625 312.039062 150.90625 L 325.292969 150.90625 C 337.148438 150.742188 341.839844 145.964844 342.167969 134.027344 L 342.25 130.570312 C 342.183594 127.515625 342.320312 124.46875 342.664062 121.433594 C 342.773438 120.503906 342.921875 119.582031 343.113281 118.667969 C 343.304688 117.75 343.539062 116.847656 343.8125 115.953125 C 344.085938 115.058594 344.398438 114.175781 344.753906 113.308594 C 345.105469 112.445312 345.5 111.597656 345.929688 110.765625 C 346.359375 109.933594 346.824219 109.125 347.328125 108.335938 C 347.832031 107.546875 348.367188 106.78125 348.941406 106.042969 C 349.511719 105.300781 350.117188 104.589844 350.753906 103.902344 C 351.390625 103.21875 352.054688 102.5625 352.75 101.9375 C 353.445312 101.3125 354.167969 100.71875 354.917969 100.160156 C 355.667969 99.597656 356.441406 99.074219 357.238281 98.582031 C 358.03125 98.09375 358.851562 97.636719 359.6875 97.222656 C 360.523438 96.804688 361.378906 96.425781 362.25 96.085938 C 363.121094 95.75 364.007812 95.449219 364.90625 95.1875 C 365.804688 94.929688 366.714844 94.710938 367.632812 94.535156 C 368.550781 94.355469 369.476562 94.21875 370.40625 94.125 C 371.335938 94.03125 372.269531 93.980469 373.207031 93.96875 L 373.453125 93.96875 C 374.398438 93.96875 375.339844 94.011719 376.285156 94.097656 C 377.226562 94.183594 378.160156 94.3125 379.089844 94.484375 C 380.019531 94.65625 380.941406 94.867188 381.851562 95.125 C 382.761719 95.378906 383.660156 95.675781 384.542969 96.011719 C 385.425781 96.347656 386.292969 96.722656 387.144531 97.140625 C 387.992188 97.554688 388.820312 98.007812 389.628906 98.5 C 390.4375 98.988281 391.222656 99.515625 391.980469 100.078125 C 392.742188 100.640625 393.476562 101.234375 394.179688 101.863281 C 394.886719 102.492188 395.5625 103.152344 396.210938 103.84375 C 396.855469 104.535156 397.46875 105.253906 398.050781 106 C 398.628906 106.746094 399.175781 107.515625 399.683594 108.3125 C 400.195312 109.109375 400.667969 109.925781 401.105469 110.765625 C 401.539062 111.605469 401.9375 112.460938 402.296875 113.335938 C 402.652344 114.214844 402.96875 115.101562 403.246094 116.007812 C 403.523438 116.910156 403.757812 117.824219 403.953125 118.75 C 404.148438 119.675781 404.296875 120.609375 404.40625 121.546875 C 404.734375 124.429688 404.734375 127.3125 404.816406 130.191406 C 404.816406 132.085938 404.816406 133.898438 404.898438 135.707031 C 404.855469 136.21875 404.839844 136.730469 404.851562 137.242188 C 404.863281 137.753906 404.902344 138.265625 404.96875 138.773438 C 405.035156 139.28125 405.132812 139.785156 405.253906 140.28125 C 405.378906 140.78125 405.527344 141.269531 405.703125 141.75 C 405.878906 142.230469 406.082031 142.703125 406.3125 143.160156 C 406.539062 143.617188 406.792969 144.0625 407.070312 144.496094 C 407.347656 144.925781 407.648438 145.339844 407.96875 145.738281 C 408.292969 146.136719 408.636719 146.515625 409 146.878906 C 409.363281 147.238281 409.746094 147.578125 410.148438 147.894531 C 410.550781 148.214844 410.96875 148.507812 411.402344 148.78125 C 411.835938 149.054688 412.285156 149.300781 412.746094 149.523438 C 413.207031 149.75 413.679688 149.945312 414.164062 150.117188 C 414.644531 150.289062 415.136719 150.433594 415.636719 150.550781 C 416.132812 150.667969 416.636719 150.757812 417.148438 150.820312 C 417.65625 150.882812 418.167969 150.917969 418.679688 150.921875 C 419.191406 150.929688 419.703125 150.90625 420.210938 150.855469 C 425.894531 151.019531 431.492188 150.9375 437.089844 150.9375 C 441.617188 150.9375 446.144531 150.9375 450.671875 151.019531 C 459.152344 151.101562 461.785156 153.738281 461.867188 162.382812 C 461.867188 172.011719 461.949219 181.644531 461.867188 191.277344 C 461.785156 199.34375 459.070312 202.144531 451 202.144531 C 432.398438 202.226562 413.792969 202.144531 395.105469 202.144531 L 297.386719 202.144531 C 287.507812 202.144531 285.199219 199.753906 285.199219 189.628906 Z M 575.96875 669.046875 C 575.96875 679.089844 573.664062 681.476562 563.703125 681.476562 L 183.367188 681.476562 C 181.621094 681.699219 179.898438 681.597656 178.195312 681.171875 C 176.488281 680.746094 174.921875 680.023438 173.488281 679.007812 C 172.472656 677.558594 171.75 675.972656 171.324219 674.257812 C 170.898438 672.539062 170.796875 670.800781 171.015625 669.046875 L 171.101562 544.574219 C 171.183594 484.644531 171.210938 424.710938 171.183594 364.78125 C 171.183594 331.109375 171.15625 297.386719 171.101562 263.605469 L 171.101562 198.242188 C 170.816406 196.382812 170.882812 194.539062 171.292969 192.707031 C 171.707031 190.875 172.4375 189.179688 173.488281 187.621094 C 175.085938 186.59375 176.8125 185.875 178.667969 185.464844 C 180.519531 185.054688 182.390625 184.976562 184.273438 185.234375 L 256.386719 185.234375 L 256.386719 186.304688 C 256.386719 189.019531 256.386719 191.574219 256.46875 194.125 C 256.46875 195.320312 256.523438 196.511719 256.636719 197.703125 C 256.753906 198.890625 256.925781 200.074219 257.15625 201.246094 C 257.386719 202.417969 257.671875 203.578125 258.015625 204.722656 C 258.359375 205.867188 258.761719 206.992188 259.214844 208.097656 C 259.667969 209.203125 260.175781 210.285156 260.738281 211.339844 C 261.296875 212.394531 261.910156 213.421875 262.570312 214.417969 C 263.230469 215.414062 263.9375 216.375 264.695312 217.300781 C 265.449219 218.226562 266.25 219.113281 267.089844 219.964844 C 267.933594 220.8125 268.816406 221.617188 269.734375 222.378906 C 270.65625 223.140625 271.613281 223.855469 272.605469 224.523438 C 273.597656 225.191406 274.617188 225.808594 275.671875 226.375 C 276.722656 226.941406 277.800781 227.457031 278.902344 227.917969 C 280.003906 228.378906 281.128906 228.789062 282.269531 229.140625 C 283.410156 229.492188 284.570312 229.785156 285.738281 230.023438 C 286.910156 230.261719 288.089844 230.445312 289.28125 230.566406 C 290.46875 230.6875 291.660156 230.753906 292.855469 230.757812 C 345.132812 231.003906 399.382812 231.003906 454.128906 230.757812 C 455.328125 230.753906 456.519531 230.691406 457.710938 230.570312 C 458.902344 230.453125 460.085938 230.273438 461.257812 230.035156 C 462.429688 229.800781 463.589844 229.503906 464.734375 229.15625 C 465.878906 228.804688 467.003906 228.398438 468.109375 227.9375 C 469.210938 227.476562 470.292969 226.964844 471.347656 226.394531 C 472.398438 225.828125 473.425781 225.210938 474.417969 224.546875 C 475.410156 223.878906 476.371094 223.164062 477.292969 222.402344 C 478.214844 221.640625 479.101562 220.835938 479.945312 219.988281 C 480.789062 219.140625 481.589844 218.25 482.347656 217.324219 C 483.105469 216.398438 483.816406 215.4375 484.476562 214.441406 C 485.140625 213.441406 485.753906 212.417969 486.316406 211.359375 C 486.878906 210.304688 487.386719 209.222656 487.84375 208.113281 C 488.296875 207.007812 488.699219 205.882812 489.042969 204.734375 C 489.390625 203.589844 489.679688 202.429688 489.910156 201.253906 C 490.140625 200.082031 490.3125 198.898438 490.429688 197.707031 C 490.546875 196.515625 490.601562 195.320312 490.601562 194.125 C 490.683594 191.820312 490.601562 189.433594 490.601562 186.632812 L 490.601562 185.234375 L 561.152344 185.234375 C 574.488281 185.234375 575.96875 186.714844 575.96875 199.722656 L 575.96875 282.867188 C 569.765625 282.167969 563.539062 281.800781 557.292969 281.761719 C 551.046875 281.726562 544.816406 282.023438 538.601562 282.652344 C 532.386719 283.28125 526.226562 284.238281 520.113281 285.527344 C 514 286.8125 507.976562 288.421875 502.035156 290.351562 C 496.09375 292.28125 490.273438 294.523438 484.574219 297.078125 C 478.875 299.628906 473.324219 302.476562 467.929688 305.621094 C 462.53125 308.765625 457.320312 312.191406 452.289062 315.890625 C 447.257812 319.59375 442.4375 323.550781 437.828125 327.769531 L 366.539062 327.769531 C 364.554688 327.726562 362.582031 327.808594 360.609375 328.015625 C 359.753906 328.101562 358.914062 328.265625 358.085938 328.503906 C 357.257812 328.746094 356.460938 329.058594 355.691406 329.445312 C 354.921875 329.832031 354.195312 330.285156 353.507812 330.804688 C 352.824219 331.324219 352.191406 331.902344 351.609375 332.535156 C 351.027344 333.171875 350.507812 333.855469 350.054688 334.582031 C 349.597656 335.3125 349.210938 336.078125 348.894531 336.878906 C 348.578125 337.679688 348.335938 338.5 348.171875 339.347656 C 348.007812 340.191406 347.917969 341.042969 347.90625 341.902344 C 347.898438 342.765625 347.964844 343.617188 348.113281 344.46875 C 348.257812 345.316406 348.480469 346.144531 348.777344 346.949219 C 349.074219 347.757812 349.441406 348.53125 349.882812 349.273438 C 350.320312 350.011719 350.824219 350.707031 351.386719 351.355469 C 351.953125 352.003906 352.574219 352.597656 353.246094 353.132812 C 353.921875 353.667969 354.636719 354.136719 355.398438 354.542969 C 356.160156 354.945312 356.949219 355.277344 357.769531 355.535156 C 358.589844 355.796875 359.425781 355.980469 360.28125 356.085938 C 361.890625 356.320312 363.511719 356.429688 365.136719 356.417969 L 412.554688 356.417969 C 408.089844 362.695312 404.054688 369.238281 400.445312 376.046875 C 396.839844 382.855469 393.691406 389.867188 391 397.085938 C 388.3125 404.308594 386.105469 411.671875 384.378906 419.179688 C 382.65625 426.691406 381.429688 434.28125 380.695312 441.949219 L 366.371094 441.949219 C 364.363281 441.90625 362.359375 441.988281 360.363281 442.195312 C 359.503906 442.296875 358.664062 442.46875 357.839844 442.722656 C 357.011719 442.972656 356.21875 443.300781 355.453125 443.699219 C 354.6875 444.097656 353.964844 444.558594 353.28125 445.089844 C 352.601562 445.621094 351.976562 446.210938 351.402344 446.855469 C 350.832031 447.5 350.320312 448.195312 349.875 448.933594 C 349.429688 449.671875 349.054688 450.445312 348.75 451.253906 C 348.449219 452.058594 348.21875 452.890625 348.066406 453.738281 C 347.914062 454.585938 347.84375 455.445312 347.847656 456.308594 C 347.851562 457.171875 347.9375 458.023438 348.097656 458.871094 C 348.257812 459.71875 348.496094 460.546875 348.808594 461.351562 C 349.125 462.15625 349.507812 462.921875 349.960938 463.65625 C 350.417969 464.390625 350.933594 465.078125 351.515625 465.714844 C 352.09375 466.355469 352.726562 466.9375 353.414062 467.457031 C 354.101562 467.980469 354.828125 468.4375 355.601562 468.824219 C 356.371094 469.214844 357.167969 469.53125 357.996094 469.773438 C 358.824219 470.015625 359.667969 470.179688 360.527344 470.269531 C 361.675781 470.433594 362.828125 470.515625 363.984375 470.515625 L 380.121094 470.515625 C 380.550781 478.085938 381.453125 485.597656 382.835938 493.054688 C 384.21875 500.511719 386.0625 507.847656 388.375 515.070312 C 390.6875 522.289062 393.449219 529.335938 396.652344 536.207031 C 399.859375 543.078125 403.488281 549.722656 407.535156 556.132812 L 365.550781 556.132812 C 365.136719 556.132812 364.644531 556.050781 364.148438 556.050781 C 363.003906 555.804688 361.855469 555.800781 360.707031 556.046875 C 359.558594 556.289062 358.511719 556.757812 357.5625 557.449219 L 356.410156 558.519531 C 354.5625 559.851562 352.945312 561.425781 351.558594 563.230469 C 350.171875 565.039062 349.070312 567.007812 348.261719 569.140625 C 347.84375 570.582031 347.734375 572.050781 347.933594 573.542969 C 348.136719 575.03125 348.628906 576.417969 349.414062 577.699219 C 350.441406 579.308594 351.738281 580.65625 353.308594 581.742188 C 354.882812 582.828125 356.601562 583.566406 358.46875 583.957031 C 361.078125 584.5 363.710938 584.71875 366.371094 584.617188 L 430.175781 584.617188 C 434.300781 588.886719 438.632812 592.941406 443.164062 596.78125 C 447.699219 600.617188 452.414062 604.21875 457.308594 607.585938 C 462.203125 610.949219 467.253906 614.0625 472.457031 616.921875 C 477.664062 619.78125 483 622.371094 488.46875 624.695312 C 493.933594 627.019531 499.503906 629.0625 505.175781 630.828125 C 510.84375 632.59375 516.589844 634.074219 522.410156 635.261719 C 528.230469 636.453125 534.09375 637.347656 540.003906 637.953125 C 545.914062 638.554688 551.835938 638.859375 557.777344 638.867188 C 563.859375 638.867188 569.921875 638.535156 575.96875 637.878906 Z M 671.796875 560.742188 C 667.316406 565.839844 662.519531 570.617188 657.402344 575.078125 C 652.289062 579.539062 646.902344 583.644531 641.246094 587.390625 C 635.585938 591.136719 629.707031 594.496094 623.601562 597.460938 C 617.5 600.429688 611.226562 602.980469 604.785156 605.113281 C 595.402344 608.261719 585.796875 610.398438 575.96875 611.535156 C 572.230469 612.101562 568.472656 612.457031 564.691406 612.605469 C 560.5 612.828125 556.308594 612.871094 552.113281 612.738281 C 547.917969 612.605469 543.738281 612.292969 539.570312 611.800781 C 535.402344 611.3125 531.261719 610.644531 527.152344 609.800781 C 523.039062 608.957031 518.972656 607.941406 514.949219 606.75 C 510.925781 605.5625 506.957031 604.203125 503.050781 602.675781 C 499.140625 601.148438 495.304688 599.457031 491.539062 597.601562 C 487.773438 595.746094 484.09375 593.734375 480.503906 591.566406 C 476.910156 589.398438 473.414062 587.082031 470.019531 584.617188 C 465.191406 581.183594 460.609375 577.449219 456.269531 573.417969 C 450.460938 568.039062 445.054688 562.273438 440.054688 556.132812 C 435.121094 550.070312 430.675781 543.671875 426.71875 536.933594 C 422.761719 530.195312 419.339844 523.195312 416.449219 515.9375 C 413.558594 508.675781 411.234375 501.238281 409.480469 493.625 C 407.722656 486.011719 406.554688 478.308594 405.96875 470.515625 C 405.722656 468.128906 405.640625 465.660156 405.558594 463.273438 C 405.390625 456.140625 405.71875 449.035156 406.546875 441.949219 C 407.46875 433.980469 409.027344 426.132812 411.214844 418.414062 C 413.40625 410.695312 416.199219 403.199219 419.601562 395.929688 C 423 388.664062 426.960938 381.714844 431.484375 375.085938 C 436.003906 368.457031 441.03125 362.234375 446.554688 356.417969 C 447.25 355.550781 447.992188 354.730469 448.777344 353.945312 C 458.808594 343.644531 470.058594 334.917969 482.53125 327.769531 C 488.230469 324.492188 494.121094 321.601562 500.195312 319.097656 C 506.273438 316.589844 512.488281 314.488281 518.839844 312.792969 C 525.1875 311.097656 531.625 309.824219 538.140625 308.96875 C 544.65625 308.113281 551.203125 307.683594 557.777344 307.679688 C 563.867188 307.652344 569.933594 308.035156 575.96875 308.832031 C 583.363281 309.714844 590.648438 311.140625 597.832031 313.109375 C 605.011719 315.078125 612.003906 317.570312 618.8125 320.585938 C 625.621094 323.597656 632.167969 327.101562 638.453125 331.089844 C 644.742188 335.082031 650.695312 339.515625 656.320312 344.398438 L 628.328125 371.316406 C 620.964844 365.722656 613.089844 360.972656 604.699219 357.074219 C 595.542969 352.757812 585.964844 349.792969 575.96875 348.183594 C 566.203125 346.59375 556.40625 346.375 546.582031 347.527344 C 541.699219 347.980469 536.871094 348.746094 532.089844 349.832031 C 525.210938 351.339844 518.542969 353.507812 512.085938 356.335938 C 507.457031 358.359375 502.992188 360.695312 498.683594 363.339844 C 494.378906 365.980469 490.273438 368.90625 486.367188 372.113281 C 482.464844 375.320312 478.800781 378.78125 475.371094 382.496094 C 471.945312 386.207031 468.789062 390.136719 465.902344 394.285156 C 460.800781 401.351562 456.582031 408.914062 453.242188 416.964844 C 449.90625 425.015625 447.539062 433.34375 446.144531 441.949219 C 444.535156 451.429688 444.207031 460.949219 445.15625 470.515625 C 445.507812 473.976562 446.019531 477.414062 446.683594 480.824219 C 447.347656 484.238281 448.164062 487.617188 449.136719 490.953125 C 450.109375 494.292969 451.230469 497.582031 452.5 500.820312 C 453.769531 504.058594 455.183594 507.230469 456.742188 510.339844 C 458.296875 513.449219 459.996094 516.480469 461.828125 519.433594 C 463.660156 522.390625 465.625 525.253906 467.71875 528.03125 C 469.8125 530.808594 472.027344 533.484375 474.363281 536.0625 C 476.699219 538.636719 479.148438 541.101562 481.707031 543.453125 C 486.761719 548.222656 492.25 552.421875 498.171875 556.050781 C 505.582031 560.746094 513.441406 564.503906 521.75 567.3125 C 530.058594 570.125 538.582031 571.914062 547.320312 572.679688 C 556.910156 573.65625 566.460938 573.355469 575.96875 571.773438 C 580.765625 571.027344 585.492188 569.96875 590.148438 568.597656 C 594.808594 567.226562 599.351562 565.554688 603.789062 563.578125 C 608.222656 561.605469 612.507812 559.347656 616.644531 556.804688 C 620.777344 554.261719 624.730469 551.460938 628.492188 548.394531 C 629.914062 547.246094 631.304688 546.0625 632.667969 544.847656 C 634.03125 543.632812 635.367188 542.386719 636.667969 541.105469 C 637.972656 539.828125 639.246094 538.515625 640.484375 537.175781 C 641.726562 535.835938 642.933594 534.464844 644.109375 533.066406 C 645.285156 531.667969 646.425781 530.242188 647.53125 528.789062 C 648.640625 527.339844 649.710938 525.859375 650.746094 524.355469 C 651.78125 522.851562 652.78125 521.320312 653.746094 519.769531 C 654.707031 518.21875 655.632812 516.644531 656.519531 515.046875 C 657.40625 513.449219 658.253906 511.832031 659.0625 510.195312 C 659.871094 508.558594 660.640625 506.902344 661.371094 505.226562 C 662.101562 503.550781 662.792969 501.863281 663.441406 500.152344 C 664.089844 498.445312 664.695312 496.726562 665.261719 494.988281 C 665.828125 493.25 666.351562 491.503906 666.835938 489.742188 C 667.316406 487.980469 667.757812 486.207031 668.15625 484.425781 C 668.550781 482.640625 668.90625 480.851562 669.21875 479.050781 C 669.53125 477.25 669.796875 475.445312 670.023438 473.632812 C 670.246094 471.820312 670.429688 470 670.566406 468.179688 C 670.703125 466.359375 670.796875 464.535156 670.847656 462.710938 C 670.898438 460.882812 670.902344 459.058594 670.867188 457.230469 C 670.828125 455.40625 670.746094 453.582031 670.621094 451.757812 C 670.496094 449.9375 670.328125 448.117188 670.117188 446.304688 C 669.902344 444.488281 669.648438 442.683594 669.347656 440.878906 C 669.050781 439.078125 668.707031 437.285156 668.320312 435.5 C 667.9375 433.714844 667.507812 431.9375 667.039062 430.171875 C 666.570312 428.410156 666.054688 426.65625 665.503906 424.914062 C 664.949219 423.175781 664.351562 421.449219 663.714844 419.738281 C 663.078125 418.023438 662.398438 416.328125 661.679688 414.648438 C 660.964844 412.972656 660.203125 411.308594 659.40625 409.667969 C 658.609375 408.023438 657.769531 406.402344 656.894531 404.796875 C 656.019531 403.195312 655.105469 401.613281 654.152344 400.054688 C 653.203125 398.496094 652.210938 396.960938 651.1875 395.449219 C 650.160156 393.9375 649.101562 392.453125 648.003906 390.992188 L 675.007812 363.742188 C 676.445312 365.457031 677.84375 367.203125 679.203125 368.980469 C 680.5625 370.757812 681.882812 372.566406 683.164062 374.402344 C 684.441406 376.238281 685.679688 378.101562 686.878906 379.992188 C 688.074219 381.886719 689.226562 383.800781 690.339844 385.746094 C 691.449219 387.6875 692.515625 389.65625 693.539062 391.644531 C 694.5625 393.636719 695.539062 395.648438 696.472656 397.683594 C 697.40625 399.71875 698.292969 401.773438 699.136719 403.847656 C 699.976562 405.921875 700.769531 408.011719 701.519531 410.121094 C 702.265625 412.230469 702.96875 414.355469 703.621094 416.496094 C 704.273438 418.636719 704.878906 420.792969 705.4375 422.960938 C 705.992188 425.125 706.503906 427.304688 706.960938 429.496094 C 707.421875 431.6875 707.832031 433.886719 708.195312 436.09375 C 708.554688 438.304688 708.867188 440.519531 709.128906 442.742188 C 709.394531 444.964844 709.605469 447.191406 709.769531 449.425781 C 709.933594 451.65625 710.046875 453.890625 710.109375 456.128906 C 710.171875 458.367188 710.183594 460.605469 710.148438 462.839844 C 710.113281 465.078125 710.027344 467.316406 709.890625 469.550781 C 709.753906 471.785156 709.566406 474.011719 709.332031 476.238281 C 709.097656 478.464844 708.808594 480.683594 708.476562 482.898438 C 708.140625 485.109375 707.757812 487.3125 707.324219 489.511719 C 706.890625 491.707031 706.40625 493.890625 705.875 496.066406 C 705.347656 498.238281 704.765625 500.402344 704.140625 502.550781 C 703.511719 504.699219 702.835938 506.832031 702.113281 508.949219 C 701.390625 511.066406 700.621094 513.167969 699.804688 515.253906 C 698.988281 517.335938 698.128906 519.402344 697.21875 521.445312 C 696.308594 523.492188 695.355469 525.515625 694.355469 527.519531 C 693.359375 529.523438 692.316406 531.5 691.226562 533.457031 C 690.140625 535.414062 689.011719 537.34375 687.835938 539.25 C 686.664062 541.15625 685.449219 543.035156 684.191406 544.886719 C 682.933594 546.738281 681.632812 548.5625 680.296875 550.355469 C 678.957031 552.148438 677.578125 553.910156 676.160156 555.644531 C 674.746094 557.375 673.289062 559.074219 671.796875 560.742188 Z M 501.878906 526.496094 C 497.71875 522.980469 493.921875 519.109375 490.492188 514.875 C 487.0625 510.644531 484.054688 506.128906 481.476562 501.332031 C 478.898438 496.535156 476.792969 491.539062 475.15625 486.34375 C 473.519531 481.144531 472.382812 475.84375 471.746094 470.433594 C 471.582031 468.953125 471.417969 467.46875 471.335938 465.90625 C 470.773438 457.832031 471.375 449.847656 473.148438 441.949219 C 474.757812 434.371094 477.328125 427.128906 480.859375 420.234375 C 484.390625 413.335938 488.765625 407.019531 493.976562 401.28125 C 495.886719 399.191406 497.898438 397.199219 500.003906 395.308594 C 502.113281 393.414062 504.308594 391.632812 506.59375 389.957031 C 508.878906 388.28125 511.242188 386.722656 513.679688 385.28125 C 516.117188 383.839844 518.621094 382.519531 521.191406 381.328125 C 523.761719 380.132812 526.382812 379.066406 529.054688 378.132812 C 531.730469 377.195312 534.441406 376.394531 537.195312 375.726562 C 539.949219 375.058594 542.730469 374.527344 545.535156 374.136719 C 548.339844 373.742188 551.160156 373.488281 553.988281 373.375 C 555.390625 373.292969 556.789062 373.292969 558.269531 373.292969 C 564.242188 373.25 570.140625 373.878906 575.96875 375.1875 C 581.121094 376.207031 586.113281 377.738281 590.949219 379.777344 C 595.789062 381.8125 600.371094 384.316406 604.703125 387.289062 C 606.511719 388.523438 608.242188 389.839844 609.96875 391.238281 L 604.703125 396.507812 L 585.273438 415.9375 C 582.285156 414.347656 579.1875 413.03125 575.96875 411.984375 C 572.910156 410.851562 569.773438 410.007812 566.558594 409.445312 C 563.34375 408.882812 560.105469 408.617188 556.839844 408.644531 C 553.578125 408.675781 550.34375 408.996094 547.140625 409.613281 C 543.933594 410.230469 540.8125 411.128906 537.773438 412.3125 C 536.410156 412.894531 535.074219 413.53125 533.769531 414.226562 C 532.460938 414.921875 531.183594 415.671875 529.941406 416.476562 C 528.699219 417.28125 527.492188 418.136719 526.324219 419.046875 C 525.15625 419.953125 524.027344 420.910156 522.9375 421.914062 C 521.851562 422.921875 520.808594 423.96875 519.8125 425.0625 C 518.816406 426.160156 517.867188 427.292969 516.964844 428.46875 C 516.066406 429.644531 515.21875 430.859375 514.421875 432.105469 C 513.628906 433.355469 512.886719 434.636719 512.199219 435.949219 C 511.515625 437.257812 510.886719 438.597656 510.316406 439.964844 C 509.746094 441.332031 509.234375 442.71875 508.78125 444.128906 C 508.328125 445.539062 507.9375 446.964844 507.609375 448.410156 C 507.28125 449.851562 507.015625 451.308594 506.808594 452.773438 C 506.605469 454.242188 506.464844 455.714844 506.386719 457.191406 C 506.308594 458.671875 506.292969 460.148438 506.34375 461.628906 C 506.390625 463.109375 506.503906 464.582031 506.679688 466.054688 C 506.855469 467.523438 507.09375 468.984375 507.394531 470.433594 C 508.230469 474.714844 509.605469 478.816406 511.519531 482.738281 C 513.429688 486.660156 515.816406 490.269531 518.671875 493.566406 C 519.53125 494.5625 520.421875 495.523438 521.351562 496.449219 C 522.28125 497.375 523.246094 498.265625 524.242188 499.121094 C 525.238281 499.976562 526.265625 500.789062 527.324219 501.566406 C 528.382812 502.34375 529.46875 503.082031 530.582031 503.773438 C 531.695312 504.46875 532.835938 505.121094 533.996094 505.730469 C 535.160156 506.339844 536.34375 506.902344 537.550781 507.421875 C 538.757812 507.941406 539.980469 508.414062 541.222656 508.839844 C 542.460938 509.269531 543.71875 509.648438 544.988281 509.980469 C 546.257812 510.3125 547.539062 510.597656 548.832031 510.832031 C 550.121094 511.066406 551.421875 511.253906 552.726562 511.390625 C 554.03125 511.527344 555.339844 511.617188 556.652344 511.652344 C 557.964844 511.691406 559.277344 511.683594 560.589844 511.621094 C 561.898438 511.5625 563.207031 511.449219 564.507812 511.292969 C 565.8125 511.132812 567.109375 510.925781 568.394531 510.667969 C 569.683594 510.410156 570.957031 510.105469 572.222656 509.75 C 573.488281 509.398438 574.734375 508.996094 575.96875 508.550781 C 578.757812 507.554688 581.421875 506.292969 583.957031 504.761719 C 586.542969 503.015625 588.949219 501.042969 591.167969 498.84375 C 593.390625 496.648438 595.386719 494.265625 597.160156 491.695312 C 598.933594 489.125 600.457031 486.410156 601.722656 483.558594 C 602.992188 480.703125 603.984375 477.753906 604.703125 474.714844 C 605.605469 471.304688 606.210938 467.839844 606.519531 464.324219 C 606.824219 460.808594 606.828125 457.292969 606.527344 453.777344 C 606.226562 450.261719 605.625 446.796875 604.726562 443.382812 C 603.828125 439.972656 602.640625 436.660156 601.167969 433.453125 L 626.351562 408.492188 C 648.496094 432.863281 652.613281 482.007812 624.542969 515.347656 C 618.800781 522.171875 612.214844 528.042969 604.785156 532.964844 C 595.910156 538.722656 586.304688 542.730469 575.96875 544.984375 C 572.117188 545.882812 568.222656 546.488281 564.28125 546.796875 C 561.480469 547.03125 558.671875 547.125 555.863281 547.082031 C 553.050781 547.035156 550.25 546.851562 547.460938 546.527344 C 544.667969 546.203125 541.898438 545.742188 539.152344 545.140625 C 536.40625 544.539062 533.699219 543.804688 531.023438 542.933594 C 528.351562 542.0625 525.730469 541.0625 523.15625 539.929688 C 520.585938 538.796875 518.074219 537.539062 515.628906 536.15625 C 513.179688 534.773438 510.808594 533.269531 508.511719 531.652344 C 506.214844 530.03125 504.003906 528.304688 501.878906 526.460938 Z M 537.195312 444.996094 L 538.675781 443.019531 C 539.761719 441.71875 540.980469 440.554688 542.324219 439.523438 C 543.667969 438.492188 545.109375 437.621094 546.644531 436.910156 C 548.183594 436.199219 549.777344 435.664062 551.433594 435.304688 C 553.089844 434.949219 554.765625 434.773438 556.460938 434.789062 C 558.691406 434.78125 560.886719 435.058594 563.046875 435.609375 L 549.957031 449.605469 C 549.542969 450.042969 549 450.652344 548.40625 451.410156 C 548.40625 451.410156 547.691406 452.316406 547.15625 453.144531 C 546.15625 454.738281 545.511719 456.464844 545.226562 458.328125 C 544.941406 460.1875 545.035156 462.027344 545.511719 463.847656 C 546.253906 466.015625 547.488281 467.855469 549.214844 469.363281 C 549.832031 469.96875 550.496094 470.515625 551.207031 471.011719 C 552.066406 471.589844 552.980469 472.054688 553.957031 472.402344 C 554.070312 472.441406 554.128906 472.507812 554.253906 472.550781 C 554.375 472.589844 554.523438 472.550781 554.65625 472.617188 C 555.753906 472.960938 556.875 473.152344 558.023438 473.191406 C 560.023438 473.011719 561.914062 472.460938 563.699219 471.53125 C 565.480469 470.605469 567.019531 469.375 568.3125 467.839844 C 570.949219 465.042969 573.5 462.078125 575.96875 459.277344 C 576.710938 458.457031 577.371094 457.714844 578.027344 456.890625 L 581.484375 453.433594 C 581.84375 454.476562 582.132812 455.535156 582.34375 456.617188 C 582.554688 457.699219 582.691406 458.789062 582.753906 459.886719 C 582.816406 460.988281 582.800781 462.085938 582.707031 463.183594 C 582.617188 464.28125 582.449219 465.371094 582.207031 466.445312 C 581.964844 467.519531 581.648438 468.570312 581.261719 469.601562 C 580.871094 470.632812 580.414062 471.632812 579.886719 472.597656 C 579.359375 473.566406 578.769531 474.492188 578.113281 475.378906 C 577.457031 476.261719 576.742188 477.097656 575.96875 477.882812 C 575.039062 478.824219 574.050781 479.703125 573.007812 480.519531 C 571.804688 481.398438 570.535156 482.171875 569.199219 482.832031 C 567.863281 483.492188 566.476562 484.035156 565.046875 484.453125 C 563.617188 484.875 562.160156 485.171875 560.679688 485.339844 C 559.199219 485.507812 557.714844 485.546875 556.226562 485.457031 C 554.738281 485.367188 553.269531 485.148438 551.816406 484.804688 C 550.367188 484.460938 548.957031 483.992188 547.589844 483.40625 C 546.21875 482.816406 544.910156 482.113281 543.664062 481.296875 C 542.414062 480.480469 541.246094 479.5625 540.160156 478.542969 C 537.6875 476.199219 535.792969 473.453125 534.480469 470.308594 C 533.625 468.253906 533.035156 466.121094 532.71875 463.917969 C 532.398438 461.714844 532.359375 459.503906 532.597656 457.289062 C 532.832031 455.074219 533.339844 452.921875 534.121094 450.835938 C 534.898438 448.75 535.921875 446.792969 537.195312 444.964844 Z M 723.414062 312.292969 C 722.070312 312.96875 720.675781 313.503906 719.226562 313.898438 C 717.777344 314.292969 716.300781 314.539062 714.804688 314.640625 C 713.304688 314.738281 711.808594 314.6875 710.320312 314.484375 C 708.832031 314.285156 707.378906 313.9375 705.960938 313.445312 C 702.585938 299.367188 703.820312 293.605469 710.40625 287.921875 L 714.191406 303.234375 L 729.917969 306.691406 C 728.152344 309.019531 725.984375 310.875 723.414062 312.257812 Z M 203.617188 352.101562 C 202.628906 351.109375 201.800781 349.996094 201.140625 348.761719 C 200.476562 347.523438 200.007812 346.21875 199.730469 344.847656 C 199.453125 343.472656 199.378906 342.085938 199.507812 340.691406 C 199.640625 339.296875 199.96875 337.949219 200.492188 336.648438 C 201.019531 335.351562 201.722656 334.15625 202.601562 333.0625 C 203.480469 331.972656 204.496094 331.027344 205.652344 330.234375 C 206.808594 329.445312 208.054688 328.835938 209.390625 328.410156 C 210.726562 327.980469 212.09375 327.757812 213.496094 327.734375 C 215.507812 327.789062 217.441406 328.214844 219.289062 329.011719 C 221.140625 329.808594 222.777344 330.921875 224.199219 332.34375 C 229.960938 338.109375 235.476562 344.035156 241.238281 350.210938 L 246.34375 355.640625 L 288.246094 305.425781 C 290.140625 303.121094 292.035156 300.816406 294.09375 298.675781 C 294.667969 297.953125 295.308594 297.292969 296.015625 296.699219 C 296.722656 296.105469 297.480469 295.582031 298.289062 295.140625 C 299.097656 294.695312 299.945312 294.332031 300.824219 294.054688 C 301.707031 293.777344 302.605469 293.589844 303.523438 293.488281 C 304.445312 293.390625 305.363281 293.382812 306.28125 293.464844 C 307.203125 293.546875 308.105469 293.71875 308.992188 293.980469 C 309.878906 294.242188 310.730469 294.585938 311.546875 295.015625 C 312.363281 295.445312 313.132812 295.953125 313.851562 296.535156 C 315.34375 297.695312 316.558594 299.09375 317.5 300.734375 C 318.441406 302.371094 319.035156 304.128906 319.28125 306 C 319.464844 308.011719 319.257812 309.976562 318.65625 311.902344 C 318.058594 313.828125 317.113281 315.566406 315.824219 317.117188 C 309.238281 325.347656 302.40625 333.496094 295.65625 341.566406 L 279.273438 361.15625 C 272.851562 368.8125 266.429688 376.46875 260.175781 384.207031 C 259.527344 385.136719 258.789062 385.988281 257.957031 386.761719 C 257.128906 387.53125 256.230469 388.210938 255.257812 388.792969 C 254.285156 389.375 253.265625 389.847656 252.191406 390.210938 C 251.121094 390.578125 250.019531 390.828125 248.894531 390.960938 C 248.652344 391.027344 248.40625 391.054688 248.15625 391.042969 C 246.25 390.972656 244.425781 390.546875 242.6875 389.761719 C 240.949219 388.976562 239.425781 387.894531 238.113281 386.511719 C 227.902344 376.800781 217.285156 366.179688 203.617188 352.101562 Z M 317.390625 429.023438 C 316.414062 430.84375 315.207031 432.488281 313.765625 433.964844 L 312.863281 435.035156 C 295.820312 455.535156 278.78125 475.976562 261.738281 496.367188 C 261.019531 497.507812 260.183594 498.558594 259.238281 499.519531 C 258.292969 500.480469 257.253906 501.332031 256.125 502.070312 C 254.996094 502.808594 253.800781 503.417969 252.539062 503.898438 C 251.28125 504.382812 249.984375 504.722656 248.648438 504.925781 L 248.15625 504.925781 C 246.839844 504.78125 245.546875 504.503906 244.285156 504.101562 C 243.023438 503.699219 241.8125 503.175781 240.652344 502.535156 C 239.496094 501.890625 238.410156 501.140625 237.402344 500.28125 C 236.390625 499.425781 235.476562 498.476562 234.652344 497.4375 C 224.527344 487.390625 214.8125 477.679688 205.097656 467.882812 C 204.6875 467.570312 204.292969 467.238281 203.917969 466.882812 C 203.542969 466.527344 203.1875 466.15625 202.851562 465.765625 C 202.515625 465.371094 202.199219 464.964844 201.90625 464.539062 C 201.613281 464.113281 201.347656 463.671875 201.101562 463.21875 C 200.855469 462.761719 200.636719 462.296875 200.441406 461.816406 C 200.246094 461.339844 200.078125 460.851562 199.933594 460.355469 C 199.789062 459.859375 199.675781 459.359375 199.585938 458.847656 C 199.496094 458.339844 199.433594 457.828125 199.398438 457.3125 C 199.367188 456.796875 199.359375 456.28125 199.378906 455.765625 C 199.402344 455.25 199.449219 454.738281 199.523438 454.226562 C 199.601562 453.714844 199.703125 453.210938 199.832031 452.710938 C 199.964844 452.210938 200.121094 451.71875 200.300781 451.238281 C 200.484375 450.753906 200.691406 450.28125 200.925781 449.820312 C 201.160156 449.359375 201.417969 448.914062 201.699219 448.480469 C 201.980469 448.046875 202.28125 447.628906 202.609375 447.230469 C 202.933594 446.828125 203.28125 446.445312 203.644531 446.082031 C 204.011719 445.71875 204.398438 445.375 204.800781 445.054688 C 205.203125 444.730469 205.625 444.429688 206.058594 444.152344 C 206.496094 443.875 206.945312 443.621094 207.40625 443.394531 C 207.871094 443.164062 208.34375 442.960938 208.828125 442.78125 C 209.3125 442.601562 209.804688 442.449219 210.304688 442.324219 C 210.804688 442.199219 211.3125 442.097656 211.824219 442.027344 C 212.335938 441.957031 212.847656 441.910156 213.363281 441.894531 C 213.882812 441.878906 214.398438 441.890625 214.910156 441.925781 C 215.425781 441.964844 215.9375 442.03125 216.445312 442.125 C 216.953125 442.21875 217.457031 442.339844 217.949219 442.484375 C 218.445312 442.632812 218.929688 442.804688 219.40625 443.003906 C 219.882812 443.203125 220.347656 443.429688 220.800781 443.675781 C 221.253906 443.925781 221.691406 444.199219 222.113281 444.492188 C 222.539062 444.789062 222.945312 445.105469 223.335938 445.445312 C 223.722656 445.785156 224.09375 446.144531 224.445312 446.523438 C 224.796875 446.902344 225.125 447.296875 225.433594 447.710938 C 230.785156 453.0625 236.054688 458.496094 241.652344 464.175781 L 246.671875 469.445312 L 289.152344 418.570312 C 291.085938 416.101562 293.171875 413.769531 295.410156 411.574219 C 296.011719 410.914062 296.671875 410.320312 297.394531 409.792969 C 298.113281 409.265625 298.878906 408.8125 299.6875 408.4375 C 300.496094 408.058594 301.335938 407.769531 302.203125 407.558594 C 303.074219 407.347656 303.953125 407.226562 304.84375 407.191406 C 305.738281 407.15625 306.625 407.210938 307.503906 407.351562 C 308.386719 407.496094 309.246094 407.722656 310.082031 408.035156 C 310.917969 408.347656 311.71875 408.738281 312.476562 409.210938 C 313.234375 409.679688 313.9375 410.222656 314.589844 410.832031 C 315.246094 411.363281 315.84375 411.949219 316.390625 412.59375 C 316.9375 413.234375 317.417969 413.921875 317.839844 414.65625 C 318.257812 415.386719 318.605469 416.148438 318.886719 416.945312 C 319.164062 417.742188 319.367188 418.554688 319.496094 419.390625 C 319.625 420.222656 319.675781 421.0625 319.648438 421.902344 C 319.621094 422.746094 319.519531 423.578125 319.339844 424.402344 C 319.160156 425.226562 318.90625 426.027344 318.578125 426.804688 C 318.25 427.582031 317.855469 428.320312 317.390625 429.023438 Z M 314.425781 525.34375 C 320.929688 531.023438 320.765625 539.585938 314.097656 547.734375 C 309.570312 553.25 305.042969 558.683594 300.511719 564.035156 L 284.460938 583.382812 C 276.640625 592.683594 268.820312 602.039062 260.996094 611.453125 C 260.292969 612.484375 259.492188 613.429688 258.585938 614.292969 C 257.683594 615.152344 256.699219 615.910156 255.632812 616.5625 C 254.570312 617.214844 253.449219 617.75 252.273438 618.164062 C 251.09375 618.578125 249.886719 618.867188 248.648438 619.027344 C 248.460938 619.089844 248.269531 619.117188 248.074219 619.109375 C 245.742188 618.914062 243.535156 618.277344 241.453125 617.210938 C 239.371094 616.140625 237.570312 614.714844 236.054688 612.933594 C 225.597656 602.5625 215.144531 592.191406 204.851562 581.734375 C 203.183594 580.160156 201.886719 578.320312 200.957031 576.222656 C 200.03125 574.125 199.542969 571.925781 199.5 569.632812 C 199.5625 567.761719 199.988281 565.976562 200.773438 564.277344 C 201.558594 562.578125 202.644531 561.097656 204.03125 559.835938 C 204.398438 559.507812 204.78125 559.195312 205.179688 558.902344 C 205.582031 558.609375 205.992188 558.339844 206.421875 558.089844 C 206.847656 557.839844 207.285156 557.613281 207.734375 557.40625 C 208.1875 557.199219 208.644531 557.019531 209.113281 556.859375 C 209.582031 556.699219 210.058594 556.566406 210.539062 556.453125 C 211.023438 556.34375 211.507812 556.257812 212 556.195312 C 212.492188 556.132812 212.984375 556.097656 213.480469 556.085938 C 213.972656 556.074219 214.46875 556.089844 214.960938 556.125 C 215.453125 556.164062 215.945312 556.226562 216.429688 556.316406 C 216.917969 556.402344 217.398438 556.515625 217.875 556.652344 C 218.351562 556.789062 218.816406 556.949219 219.277344 557.136719 C 219.734375 557.320312 220.183594 557.527344 220.625 557.753906 C 221.0625 557.984375 221.488281 558.234375 221.898438 558.507812 C 222.3125 558.78125 222.710938 559.074219 223.09375 559.386719 C 223.476562 559.699219 223.84375 560.03125 224.195312 560.382812 C 224.542969 560.734375 224.875 561.097656 225.1875 561.484375 C 230.703125 567 236.054688 572.597656 241.652344 578.441406 L 246.671875 583.710938 L 288.988281 532.917969 C 289.894531 531.765625 290.882812 530.613281 291.871094 529.460938 C 292.625 528.425781 293.476562 527.476562 294.417969 526.609375 C 295.363281 525.746094 296.382812 524.980469 297.476562 524.316406 C 298.570312 523.652344 299.722656 523.101562 300.925781 522.664062 C 302.128906 522.230469 303.363281 521.914062 304.628906 521.722656 C 306.441406 521.632812 308.195312 521.902344 309.898438 522.53125 C 311.597656 523.160156 313.109375 524.097656 314.425781 525.34375 Z M 314.425781 525.34375 " fill-opacity="1" fill-rule="nonzero"/></g></svg>